<svg xmlns="http://www.w3.org/2000/svg" viewBox="0 0 24 24" fill="none" stroke="#00A78E" stroke-width="1.5" stroke-linecap="round" stroke-linejoin="round">
  <line x1="8" y1="2" x2="16" y2="2" />
  <path d="M14 2L14 6L19 14L15 21L9 21L5 14L10 6L10 2" />
  <circle cx="12" cy="10" r="1.2" fill="#00A78E" stroke="none" />
  <circle cx="8" cy="15" r="1.2" fill="#00A78E" stroke="none" />
  <circle cx="16" cy="15" r="1.2" fill="#00A78E" stroke="none" />
  <circle cx="12" cy="18" r="1.2" fill="#00A78E" stroke="none" />
  <line x1="12" y1="10" x2="8" y2="15" stroke-width="1" />
  <line x1="12" y1="10" x2="16" y2="15" stroke-width="1" />
  <line x1="8" y1="15" x2="12" y2="18" stroke-width="1" />
  <line x1="16" y1="15" x2="12" y2="18" stroke-width="1" />
  <line x1="8" y1="15" x2="16" y2="15" stroke-width="1" />
  <rect x="18" y="2" width="2" height="2" fill="#00A78E" stroke="none" />
  <rect x="22" y="5" width="1.5" height="1.5" fill="#00A78E" stroke="none" />
  <rect x="20" y="8" width="1" height="1" fill="#00A78E" stroke="none" />
  <rect x="16" y="1" width="1.2" height="1.2" fill="#00A78E" stroke="none" />
</svg>
